<?xml version="1.0" encoding="utf-8"?>
<!-- Generator: Adobe Illustrator 24.2.3, SVG Export Plug-In . SVG Version: 6.00 Build 0)  -->
<svg width="62px" height="62px" fill = "#c8d1d9" version="1.1" id="Слой_1" xmlns="http://www.w3.org/2000/svg" xmlns:xlink="http://www.w3.org/1999/xlink" x="0px" y="0px"
	 viewBox="0 0 1000 1000" style="enable-background:new 0 0 1000 1000;" xml:space="preserve">
<path d="M142.94,791.76h31.77c31.31,0,58.02-22.63,63.17-53.51l36.41-218.48c5.15-30.88,31.86-53.51,63.17-53.51h0
	c31.31,0,58.02,22.63,63.17,53.51l36.41,218.48c5.15,30.88,31.86,53.51,63.17,53.51h31.77c39.96,0,70.16-36.19,63.01-75.5
	l-85.21-468.68c-5.54-30.45-32.06-52.59-63.01-52.59H228.15c-30.95,0-57.47,22.13-63.01,52.59L79.93,716.26
	C72.78,755.57,102.98,791.76,142.94,791.76z"/>
<path d="M907.46,843.06l-27.61,15.73c-27.19,15.49-61.6,9.1-81.38-15.19l-37.44-45.94c-4.29-5.27-10.97-7.95-17.71-7.12
	c-6.52,0.81-13.14,1.21-19.9,1.21h-37.89c-9.58,0-17.79-6.85-19.51-16.28l-22.39-123.1c-2.21-12.17,7.14-23.37,19.51-23.37h0
	c33.19,0,60.09-26.9,60.09-60.09V417.84c0-33.19-26.9-60.09-60.09-60.09h-53.53c-0.67,0-1.33,0.02-1.99,0.05
	c-9.94,0.48-18.69-6.41-20.47-16.2l-22.42-123.22c-2.21-12.17,7.14-23.37,19.51-23.37H703.6C804.33,195,886,276.66,886,377.4v251.79
	c0,16.71-2.54,32.86-7.26,48.05c-2,6.43-0.61,13.41,3.72,18.57l42.3,50.44C950.43,776.87,942.12,823.23,907.46,843.06z"/>
</svg>
